<svg xmlns="http://www.w3.org/2000/svg" xmlns:xlink="http://www.w3.org/1999/xlink" viewBox="0 0 1978.2 330"><defs><style>.cls-1{fill:url(#名称未設定グラデーション_9);}.cls-2{fill:url(#名称未設定グラデーション_9-2);}.cls-3{fill:url(#名称未設定グラデーション_9-3);}.cls-4{fill:url(#名称未設定グラデーション_9-4);}.cls-5{fill:#fff;}</style><linearGradient id="名称未設定グラデーション_9" x1="69.35" y1="75.93" x2="92.09" y2="237.76" gradientUnits="userSpaceOnUse"><stop offset="0" stop-color="#ffb300"/><stop offset="1" stop-color="#ff7903"/></linearGradient><linearGradient id="名称未設定グラデーション_9-2" x1="153.46" y1="-0.02" x2="176.45" y2="163.57" xlink:href="#名称未設定グラデーション_9"/><linearGradient id="名称未設定グラデーション_9-3" x1="153.76" y1="166.76" x2="176.7" y2="330" xlink:href="#名称未設定グラデーション_9"/><linearGradient id="名称未設定グラデーション_9-4" x1="238.35" y1="92.73" x2="261" y2="253.88" xlink:href="#名称未設定グラデーション_9"/></defs><g id="レイヤー_2" data-name="レイヤー 2"><g id="レイヤー_2-2" data-name="レイヤー 2"><path class="cls-1" d="M165.39,165.12,22.14,247.59a165.15,165.15,0,0,1-.11-165Z"/><path class="cls-2" d="M308.16,82.92l-142.77,82.2L22,82.58a165,165,0,0,1,286.13.34Z"/><path class="cls-3" d="M308.06,247.27a165,165,0,0,1-285.92.32l143.25-82.47Z"/><path class="cls-4" d="M330,165a164.24,164.24,0,0,1-21.94,82.27L165.39,165.12l142.77-82.2A164.23,164.23,0,0,1,330,165Z"/><path class="cls-5" d="M230,154.49V106.75H214.06V90.83H182.22V59H166.31V90.83H150.39V59H134.48V90.83H86.73v31.83h15.91v95.5H86.73V250h47.75v31.83h15.91V250h15.92v31.83h15.91V250h31.84V234.07H230V170.41H214.06V154.49Zm-95.49-31.83h63.66v31.83H134.48Zm63.66,95.5H134.48V186.33h63.66Z"/><path class="cls-5" d="M742.2,120h0a30,30,0,0,1-30,30h-180V270h210v60h-270V30a30,30,0,0,1,30-30h0a30,30,0,0,1,30,30V90h180A30,30,0,0,1,742.2,120ZM652.2,0V60h30V0Zm60,0V60h30V0Z"/><path class="cls-5" d="M1034.2,90V210h-60V90Zm-150,0V210h60V90Zm210,0V270h-180a30,30,0,0,0-30,30h0a30,30,0,0,0,30,30h240V90Z"/><path class="cls-5" d="M1566.2,30V330h-240a30,30,0,0,1-30-30h0a30,30,0,0,1,30-30h180V60h-210V0h240A30,30,0,0,1,1566.2,30Z"/><path class="cls-5" d="M1978.2,210v90a30,30,0,0,1-30,30h-240V0h60V270h150V210Z"/></g></g></svg>